<svg xmlns="http://www.w3.org/2000/svg" data-name="Layer 1" viewBox="0 0 2585.38 348.38"><path d="M321.91 47.99c14.96 16.26 26.05 34.66 32.97 55.52 3.45 10.39 5.99 21 6.74 31.94.55 7.96 1.04 15.98.66 23.94-.89 18.92-5.36 37.07-13.24 54.35-8.18 17.95-19.42 33.71-33.73 47.25-16.16 15.29-34.83 26.49-55.93 33.58-12.42 4.18-25.2 6.63-38.27 7.46-16.26 1.03-32.3-.52-48.39-4.67-.87 3.2-1.79 6.35-2.58 9.54-1.77 7.18-3.73 14.27-8.05 20.45-8.36 11.98-19.67 19.07-34.27 20.69-2.37.26-4.77.32-7.15.32-39.31.02-78.62.02-117.92.02H0c1.87-6.87 3.64-13.5 5.48-20.11 4.26-15.29 8.55-30.56 12.82-45.85 5.29-18.95 10.6-37.89 15.86-56.85 5.27-18.98 10.49-37.97 15.77-56.94 5.18-18.64 10.49-37.25 15.57-55.92 2.75-10.1 5.95-20.01 10.75-29.34 14.24-27.67 34.79-49.27 62.01-64.45 15.66-8.73 32.39-14.34 50.07-17.14C198.08.24 207.92-.31 217.75.16c20.13.95 39.4 5.54 57.7 14.12 17.61 8.25 32.96 19.55 46.44 33.72m-91.33 43.81c-.38 1.31-.77 2.61-1.14 3.92-5.81 20.53-11.61 41.07-17.42 61.6-9.94 35.1-19.88 70.2-29.81 105.31-.82 2.91-1.58 5.84-2.49 9.2 49.21 10.19 91.41-1.46 125.16-38.86 31.43-34.83 41.22-87.82 19.03-134.58-15.72-33.12-41.59-54.85-76.49-66.32-5.69 20.09-11.25 39.75-16.85 59.74M93.94 110.95c-1.44 5.12-3.15 10.18-4.27 15.36-2.43 11.2-3.06 22.55-2.22 34 .75 10.28 2.64 20.32 5.95 30.05 9.44 27.79 26.62 49.61 51.17 65.64 3.17 2.07 6.53 3.84 10.03 5.87 22.17-78.43 44.23-156.49 66.3-234.59-9.55-.57-20.53-.59-33 1.84-24.7 4.82-45.98 16.14-63.9 33.72-10.28 10.08-18.59 21.65-24.68 34.73-1.98 4.25-3.51 8.71-5.38 13.38M71.37 321.43h51.96c7.73 0 15.45-4.86 18.04-12.17 2.23-6.27 3.59-12.84 5.5-19.23.47-1.58.06-2.27-1.32-2.76-.58-.21-1.11-.54-1.66-.81-18.61-9.38-34.67-21.98-48.1-37.92-11.78-13.97-20.7-29.58-27.03-47.25-11.2 40.25-22.28 80.08-33.43 120.15h36.04Z" style="fill:#010202;stroke-width:0"/><path d="m390.25 303.6 46.2-231h93.39c28.82 0 51.15 6.33 66.99 18.98 15.84 12.65 23.76 30.19 23.76 52.63 0 19.58-4.57 36.52-13.7 50.82-9.13 14.3-22.11 25.36-38.94 33.17-16.83 7.81-36.79 11.71-59.9 11.71h-74.91l28.38-24.42-17.82 88.11h-53.46Zm69.96-81.84-18.81-25.41h68.97c17.6 0 31.35-4.01 41.25-12.04 9.9-8.03 14.85-19.64 14.85-34.81 0-11.44-3.79-19.85-11.39-25.25-7.59-5.39-18.21-8.08-31.84-8.08h-65.01l28.38-26.07-26.4 131.67Zm165 81.84 34.98-177.54h49.17l-10.23 50.49-4.62-14.19c7.92-14.52 18.26-24.64 31.02-30.36 12.76-5.72 28.05-8.58 45.87-8.58l-9.24 47.85c-2.2-.44-4.24-.77-6.1-.99-1.87-.22-3.8-.33-5.78-.33-15.18 0-27.55 3.85-37.12 11.55-9.57 7.7-16 19.91-19.3 36.63L676.7 303.6h-51.48Zm232.32 2.64c-18.04 0-33.77-3.3-47.19-9.9-13.42-6.6-23.87-15.89-31.35-27.88-7.48-11.99-11.22-25.79-11.22-41.42 0-19.8 4.62-37.51 13.86-53.13 9.24-15.62 21.94-27.94 38.11-36.96 16.17-9.02 34.59-13.53 55.27-13.53 18.26 0 34.1 3.3 47.52 9.9 13.42 6.6 23.76 15.84 31.02 27.72 7.26 11.88 10.89 25.74 10.89 41.58 0 19.8-4.62 37.51-13.86 53.13-9.24 15.62-21.84 27.94-37.79 36.96s-34.38 13.53-55.27 13.53ZM860.5 264c10.12 0 19.08-2.48 26.9-7.42 7.81-4.95 13.91-11.82 18.31-20.62 4.4-8.8 6.6-19.03 6.6-30.69s-3.46-21.12-10.4-28.38c-6.93-7.26-16.89-10.89-29.86-10.89-9.9 0-18.81 2.42-26.73 7.26-7.92 4.84-14.14 11.66-18.65 20.46-4.51 8.8-6.77 19.03-6.77 30.69s3.57 21.73 10.73 28.88c7.15 7.15 17.1 10.73 29.86 10.73Zm90.75 39.6 101.97-104.94-6.6 26.07-54.12-98.67h53.79l36.63 67.98h-23.76l64.02-67.98h57.09l-98.01 101.64 4.62-27.39 57.42 103.29h-54.78l-37.62-70.62h24.09l-66.33 70.62h-58.41Zm219.78 0 34.98-177.54h51.81l-35.64 177.54h-51.15Zm69.63-202.29c-9.02 0-16.28-2.64-21.78-7.92-5.5-5.28-8.25-11.55-8.25-18.81 0-8.58 3.13-15.84 9.4-21.78 6.27-5.94 14.46-8.91 24.58-8.91 9.24 0 16.55 2.42 21.95 7.26 5.39 4.84 8.08 11 8.08 18.48 0 9.46-3.08 17.11-9.24 22.94-6.16 5.83-14.41 8.75-24.75 8.75Zm123.74 204.93c-18.26 0-34.21-3.3-47.85-9.9-13.64-6.6-24.2-15.84-31.68-27.72-7.48-11.88-11.22-25.85-11.22-41.91 0-19.8 4.46-37.46 13.37-52.96 8.91-15.51 21.23-27.77 36.96-36.79s33.83-13.53 54.29-13.53c17.38 0 32.39 3.25 45.04 9.74 12.65 6.49 22.44 15.57 29.37 27.22 6.93 11.66 10.4 25.41 10.4 41.25 0 4.62-.33 9.24-.99 13.86-.66 4.62-1.43 9.02-2.31 13.2h-146.85l5.61-30.03h117.15l-21.45 9.24c1.98-9.9 1.48-18.2-1.49-24.91-2.97-6.71-7.59-11.88-13.86-15.51-6.27-3.63-13.92-5.44-22.93-5.44-11.22 0-20.74 2.7-28.54 8.08-7.81 5.39-13.75 12.82-17.82 22.27-4.07 9.46-6.1 20.24-6.1 32.34 0 13.42 3.79 23.49 11.38 30.2 7.59 6.71 19.19 10.07 34.81 10.07 9.02 0 17.71-1.43 26.07-4.29 8.36-2.86 15.51-6.82 21.45-11.88l21.45 33.66c-10.34 8.14-21.95 14.14-34.82 17.99s-26.02 5.78-39.43 5.78Zm197.01 1.32c-12.54 0-24.75-1.15-36.63-3.46-11.88-2.31-22.61-5.39-32.17-9.24-9.57-3.85-17.55-8.19-23.92-13.03l21.45-41.25c7.04 5.06 14.74 9.4 23.1 13.03 8.36 3.63 17 6.38 25.9 8.25 8.91 1.87 17.99 2.81 27.23 2.81 9.9 0 18.42-1.04 25.58-3.14 7.15-2.09 12.59-5.17 16.33-9.24 3.74-4.07 5.61-8.85 5.61-14.36s-2.04-9.9-6.1-13.2c-4.07-3.3-9.46-6.1-16.17-8.42-6.71-2.31-14.19-4.56-22.44-6.76-8.25-2.2-16.45-4.79-24.58-7.75-8.14-2.97-15.62-6.71-22.44-11.22-6.82-4.51-12.27-10.28-16.33-17.33-4.07-7.04-6.11-15.84-6.11-26.4 0-15.84 4.34-29.64 13.04-41.42 8.69-11.77 20.96-20.84 36.79-27.23 15.84-6.38 34.43-9.57 55.77-9.57 15.62 0 30.36 1.65 44.22 4.95 13.86 3.3 25.85 8.25 35.97 14.85l-20.46 40.92c-8.8-5.72-18.65-10.12-29.54-13.2s-21.95-4.62-33.17-4.62c-10.34 0-19.2 1.21-26.56 3.63-7.37 2.42-12.98 5.78-16.83 10.06-3.85 4.29-5.89 9.19-6.11 14.69 0 5.28 2.09 9.68 6.27 13.2 4.18 3.52 9.68 6.44 16.5 8.75 6.82 2.31 14.3 4.62 22.44 6.93 8.14 2.31 16.28 4.84 24.42 7.59s15.62 6.33 22.44 10.72c6.82 4.4 12.32 10.01 16.5 16.83 4.18 6.82 6.27 15.18 6.27 25.08 0 15.84-4.4 29.65-13.2 41.42-8.8 11.77-21.18 20.9-37.12 27.39-15.95 6.49-34.6 9.73-55.94 9.73Zm131.66-137.94 7.92-39.6h123.09l-7.92 39.6h-123.09Zm66.99 136.62c-12.76 0-23.65-2.59-32.67-7.76-9.02-5.17-15.46-12.65-19.3-22.44-3.85-9.79-4.46-21.5-1.82-35.15l31.02-154.11h51.48l-31.02 154.11c-1.32 7.48-.55 13.42 2.31 17.82 2.86 4.4 8.03 6.6 15.51 6.6 3.74 0 7.37-.55 10.89-1.65 3.52-1.1 6.93-2.64 10.23-4.62l7.59 36.63c-6.38 3.96-13.42 6.71-21.12 8.25-7.7 1.54-15.4 2.31-23.1 2.31Zm147.18 0c-14.52 0-27.06-3.14-37.62-9.41-10.56-6.27-18.04-15.45-22.44-27.55-4.4-12.1-4.84-27.06-1.32-44.88l19.47-98.34h51.81L1898 221.1c-2.42 12.98-1.32 22.99 3.3 30.03 4.62 7.04 12.98 10.56 25.08 10.56 12.76 0 23.48-3.74 32.18-11.22 8.69-7.48 14.46-18.92 17.32-34.32l18.15-90.09h51.48L2010.2 303.6h-48.84l9.9-50.16 7.26 14.85c-8.58 13.2-19.09 22.83-31.52 28.88-12.43 6.05-25.69 9.08-39.76 9.08Zm231.33 0c-13.42 0-25.96-3.14-37.62-9.41-11.66-6.27-21.07-15.34-28.21-27.23-7.15-11.88-10.72-26.07-10.72-42.57 0-15.18 2.53-29.04 7.59-41.58 5.06-12.54 12.1-23.43 21.12-32.67 9.02-9.24 19.47-16.44 31.35-21.61 11.88-5.17 24.64-7.76 38.28-7.76s26.12 2.42 36.13 7.26c10.01 4.84 17.82 12.27 23.43 22.27 5.61 10.01 8.42 22.6 8.42 37.79 0 16.28-1.93 31.35-5.77 45.21-3.85 13.86-9.68 26.07-17.49 36.63-7.81 10.56-17.22 18.81-28.21 24.75-11 5.94-23.76 8.91-38.28 8.91Zm16.17-42.57c10.12 0 19.08-2.42 26.9-7.26 7.81-4.84 13.97-11.66 18.48-20.46s6.76-19.03 6.76-30.69-3.52-21.39-10.56-28.54c-7.04-7.15-17.05-10.73-30.03-10.73-9.9 0-18.76 2.48-26.56 7.42-7.81 4.95-14.03 11.77-18.65 20.46-4.62 8.69-6.93 18.87-6.93 30.52s3.57 21.67 10.72 28.71c7.15 7.04 17.1 10.56 29.87 10.56Zm34.98 39.93 7.26-35.31 11.22-52.8 6.93-52.8 20.79-103.95h51.81l-48.84 244.86h-49.17Zm96.69 0 34.98-177.54h51.81l-35.64 177.54h-51.15Zm69.63-202.29c-9.02 0-16.28-2.64-21.78-7.92-5.5-5.28-8.25-11.55-8.25-18.81 0-8.58 3.13-15.84 9.41-21.78 6.27-5.94 14.46-8.91 24.58-8.91 9.24 0 16.55 2.42 21.94 7.26 5.39 4.84 8.08 11 8.08 18.48 0 9.46-3.08 17.11-9.24 22.94-6.16 5.83-14.41 8.75-24.75 8.75Zm122.42 204.93c-18.04 0-33.77-3.3-47.19-9.9-13.42-6.6-23.87-15.89-31.35-27.88-7.48-11.99-11.22-25.79-11.22-41.42 0-19.8 4.62-37.51 13.86-53.13 9.24-15.62 21.95-27.94 38.12-36.96 16.17-9.02 34.59-13.53 55.28-13.53 18.26 0 34.1 3.3 47.52 9.9 13.42 6.6 23.76 15.84 31.02 27.72 7.26 11.88 10.89 25.74 10.89 41.58 0 19.8-4.62 37.51-13.86 53.13-9.24 15.62-21.84 27.94-37.78 36.96-15.95 9.02-34.38 13.53-55.28 13.53Zm2.97-42.24c10.12 0 19.08-2.48 26.9-7.42 7.81-4.95 13.91-11.82 18.31-20.62 4.4-8.8 6.6-19.03 6.6-30.69s-3.47-21.12-10.4-28.38c-6.93-7.26-16.89-10.89-29.87-10.89-9.9 0-18.81 2.42-26.73 7.26-7.92 4.84-14.14 11.66-18.65 20.46-4.51 8.8-6.76 19.03-6.76 30.69s3.57 21.73 10.72 28.88c7.15 7.15 17.1 10.73 29.87 10.73Z" style="stroke-width:0"/></svg>